<svg id="Grupo_2845" data-name="Grupo 2845" xmlns="http://www.w3.org/2000/svg" width="44.461" height="35.745" viewBox="0 0 44.461 35.745">
  <path id="Caminho_1369" data-name="Caminho 1369" d="M342.692,376.534H312.559a.651.651,0,0,0,0,1.3h30.133a.651.651,0,0,0,0-1.3Zm0-2.605H312.559a.651.651,0,1,0,0,1.3h30.133a.651.651,0,1,0,0-1.3Zm3.908-8.488a.651.651,0,0,0-.651.651v12.4a1.956,1.956,0,0,1-1.954,1.954H311.256a1.956,1.956,0,0,1-1.954-1.954V357.68a1.956,1.956,0,0,1,1.954-1.954h20.35a.651.651,0,1,0,0-1.3h-20.35A3.26,3.26,0,0,0,308,357.68v20.808a3.26,3.26,0,0,0,3.256,3.256h32.738a3.26,3.26,0,0,0,3.256-3.256v-12.4a.651.651,0,0,0-.651-.651ZM343.011,346a9.451,9.451,0,0,0-9,12.331h-4.517a.651.651,0,1,0,0,1.3h5.046a9.466,9.466,0,0,0,.782,1.3h-5.828a.651.651,0,1,0,0,1.3h6.951A9.448,9.448,0,1,0,343.011,346Zm0,17.6a8.148,8.148,0,1,1,8.148-8.148,8.157,8.157,0,0,1-8.148,8.148ZM314.279,372.5a3.678,3.678,0,0,0,.885.123h7.783a3.3,3.3,0,0,0,3.256-3.256v-7.783a3.26,3.26,0,0,0-3.256-3.256h-7.783a3.26,3.26,0,0,0-3.256,3.256v7.783a3.262,3.262,0,0,0,2.372,3.133Zm.963-1.18a4,4,0,0,1,7.627,0Zm1.319-6.591a2.495,2.495,0,1,1,2.495,2.494,2.5,2.5,0,0,1-2.495-2.494Zm-3.351-3.146a1.956,1.956,0,0,1,1.954-1.954h7.783a1.956,1.956,0,0,1,1.954,1.954v7.783a1.952,1.952,0,0,1-.788,1.567,5.341,5.341,0,0,0-2.762-3.182,3.8,3.8,0,1,0-4.59,0A5.341,5.341,0,0,0,314,370.937a1.952,1.952,0,0,1-.788-1.567Zm33.05-8.423-4.518,4.518a.162.162,0,0,1-.229,0l-1.753-1.753a.651.651,0,1,0-.921.921l1.753,1.753a1.466,1.466,0,0,0,2.071,0l4.518-4.518a.651.651,0,1,0-.921-.921Zm-3.569,15.555h-13.2a.651.651,0,1,0,0,1.3h13.2a.651.651,0,1,0,0-1.3Zm0,2.605h-13.2a.651.651,0,1,0,0,1.3h13.2a.651.651,0,1,0,0-1.3Zm0,0" transform="translate(-308 -346)" fill="#0bd692"/>
</svg>
