<svg id="Grupo_2843" data-name="Grupo 2843" xmlns="http://www.w3.org/2000/svg" width="31.301" height="37.797" viewBox="0 0 31.301 37.797">
  <path id="Caminho_1354" data-name="Caminho 1354" d="M503.869,422H493.238a.738.738,0,1,0,0,1.476h10.631a.738.738,0,0,0,0-1.476Zm0,0" transform="translate(-477.588 -410.779)" fill="#0bd692"/>
  <path id="Caminho_1355" data-name="Caminho 1355" d="M570.217,458.216a.738.738,0,1,0,.216.522.744.744,0,0,0-.216-.522Zm0,0" transform="translate(-546.519 -443.235)" fill="#0bd692"/>
  <path id="Caminho_1356" data-name="Caminho 1356" d="M493.752,340.466a.739.739,0,1,0,.216.522.745.745,0,0,0-.216-.522Zm0,0" transform="translate(-477.581 -337.076)" fill="#0bd692"/>
  <path id="Caminho_1357" data-name="Caminho 1357" d="M497.659,458h-4.42a.738.738,0,1,0,0,1.477h4.42a.738.738,0,0,0,0-1.477Zm0,0" transform="translate(-477.588 -443.235)" fill="#0bd692"/>
  <path id="Caminho_1358" data-name="Caminho 1358" d="M503.869,503H493.238a.738.738,0,1,0,0,1.476h10.631a.738.738,0,0,0,0-1.476Zm0,0" transform="translate(-477.588 -483.806)" fill="#0bd692"/>
  <path id="Caminho_1359" data-name="Caminho 1359" d="M570.217,539.216a.737.737,0,1,0,.216.522.744.744,0,0,0-.216-.522Zm0,0" transform="translate(-546.519 -516.263)" fill="#0bd692"/>
  <path id="Caminho_1360" data-name="Caminho 1360" d="M497.659,539h-4.42a.738.738,0,1,0,0,1.476h4.42a.738.738,0,1,0,0-1.476Zm0,0" transform="translate(-477.588 -516.263)" fill="#0bd692"/>
  <path id="Caminho_1361" data-name="Caminho 1361" d="M503.869,584H493.238a.738.738,0,1,0,0,1.477h10.631a.738.738,0,0,0,0-1.477Zm0,0" transform="translate(-477.588 -556.833)" fill="#0bd692"/>
  <path id="Caminho_1362" data-name="Caminho 1362" d="M570.217,620.216a.737.737,0,1,0,.216.522.744.744,0,0,0-.216-.522Zm0,0" transform="translate(-546.519 -589.29)" fill="#0bd692"/>
  <path id="Caminho_1363" data-name="Caminho 1363" d="M497.659,620h-4.42a.738.738,0,1,0,0,1.476h4.42a.738.738,0,1,0,0-1.476Zm0,0" transform="translate(-477.588 -589.29)" fill="#0bd692"/>
  <path id="Caminho_1364" data-name="Caminho 1364" d="M368.7,310.879h-5.639a4.523,4.523,0,0,0-3.129-1.255h-.647a2.953,2.953,0,0,0-5.274,0h-.648a4.523,4.523,0,0,0-3.129,1.255H344.6a3.6,3.6,0,0,0-3.6,3.6V342.2a3.6,3.6,0,0,0,3.6,3.6h24.1a3.6,3.6,0,0,0,3.6-3.6V314.479a3.6,3.6,0,0,0-3.6-3.6Zm-15.336.221h1.151a.738.738,0,0,0,.711-.542,1.477,1.477,0,0,1,2.846,0,.738.738,0,0,0,.711.542h1.149a3.068,3.068,0,0,1,3.053,2.805H350.312a3.068,3.068,0,0,1,3.053-2.805Zm17.459,31.1a2.125,2.125,0,0,1-2.123,2.123H344.6a2.125,2.125,0,0,1-2.123-2.123V314.479a2.126,2.126,0,0,1,2.123-2.123h4.6a4.514,4.514,0,0,0-.377,1.809v.48a.738.738,0,0,0,.738.738h14.172a.738.738,0,0,0,.738-.738v-.48a4.514,4.514,0,0,0-.377-1.809h4.6a2.125,2.125,0,0,1,2.123,2.123Zm0,0" transform="translate(-341 -308)" fill="#0bd692"/>
  <path id="Caminho_1365" data-name="Caminho 1365" d="M393.38,418.217a.739.739,0,0,0-1.044,0l-3.157,3.157-.972-.973a.738.738,0,1,0-1.044,1.044l1.495,1.495a.739.739,0,0,0,1.044,0l3.679-3.679a.739.739,0,0,0,0-1.044Zm0,0" transform="translate(-382.424 -407.174)" fill="#0bd692"/>
  <path id="Caminho_1366" data-name="Caminho 1366" d="M394.782,584h-3.543a.738.738,0,0,0-.738.738v3.544a.738.738,0,0,0,.738.738h3.543a.738.738,0,0,0,.738-.738v-3.544a.738.738,0,0,0-.738-.738Zm-.738,3.544h-2.067v-2.067h2.067Zm0,0" transform="translate(-385.628 -556.833)" fill="#0bd692"/>
  <path id="Caminho_1367" data-name="Caminho 1367" d="M394.782,503h-3.543a.738.738,0,0,0-.738.738v3.543a.738.738,0,0,0,.738.738h3.543a.738.738,0,0,0,.738-.738v-3.543a.738.738,0,0,0-.738-.738Zm-.738,3.544h-2.067v-2.067h2.067Zm0,0" transform="translate(-385.628 -483.806)" fill="#0bd692"/>
</svg>
