<?xml version="1.0" encoding="utf-8"?>
<!-- Generator: Adobe Illustrator 23.0.1, SVG Export Plug-In . SVG Version: 6.00 Build 0)  -->
<svg version="1.2" baseProfile="tiny" id="Camada_1"
	 xmlns="http://www.w3.org/2000/svg" xmlns:xlink="http://www.w3.org/1999/xlink" x="0px" y="0px" viewBox="0 0 300 300"
	 xml:space="preserve">
<g id="Grupo_2773">
	<g id="Grupo_2772">
		<g id="Grupo_2771">
			<path id="Caminho_1327" fill="#0BD591" d="M288.4,68.2L153.9,3.3c-1.2-0.6-2.6-0.6-3.8,0L15.8,68.2c-1.5,0.7-2.5,2.3-2.4,3.9
				v157.5c0,1.7,0.9,3.2,2.4,3.9l134.4,64.9c1.2,0.6,2.6,0.6,3.8,0l134.4-64.9c1.5-0.7,2.4-2.2,2.4-3.9V72.1
				C290.8,70.5,289.9,68.9,288.4,68.2z M152.1,12l124.4,60.1l-36.1,17.5c-0.2-0.2-0.5-0.3-0.7-0.5L116.1,29.5L152.1,12z M106.3,34.3
				l124.3,60l-25.4,12.3l-124.3-60L106.3,34.3z M233.5,102.5v45.4l-23.8,11.5V114L233.5,102.5z M282.1,227l-125.8,60.7V139.7
				l30-14.5c2.2-1,3.1-3.6,2-5.8c-1-2.2-3.6-3.1-5.8-2l0,0l-30.6,14.8l-12-5.8c-2.2-1-4.7-0.1-5.8,2c-1,2.2-0.1,4.7,2,5.8l11.5,5.5
				v147.9L22,226.9V79l95.7,46.2c2.2,1,4.7,0.1,5.8-2c1-2.2,0.1-4.7-2-5.8L27.6,72.1l43.1-20.8L201,114.2v0.1v52
				c0,2.4,1.9,4.3,4.3,4.3c0,0,0,0,0,0c0.6,0,1.3-0.1,1.9-0.4l32.5-15.6c1.5-0.7,2.5-2.2,2.5-3.9V98.4l40-19.3L282.1,227z"/>
		</g>
	</g>
	<path id="Caminho_1328" fill="#0BD591" d="M76.6,209l-27.7-13.4c-3-1.5-6.7-0.2-8.1,2.8c-1.5,3-0.2,6.7,2.8,8.1l27.7,13.4
		c3,1.5,6.7,0.2,8.1-2.8C80.9,214.1,79.7,210.4,76.6,209z"/>
	<path id="Caminho_1329" fill="#0BD591" d="M102.1,198.8l-53.2-25.7c-3-1.5-6.7-0.2-8.1,2.8c-1.5,3-0.2,6.7,2.8,8.1l53.2,25.7
		c3,1.6,6.7,0.4,8.2-2.5c1.6-3,0.4-6.7-2.5-8.2C102.4,198.9,102.2,198.8,102.1,198.8L102.1,198.8z"/>
</g>
</svg>
