<svg xmlns="http://www.w3.org/2000/svg" width="40.316" height="34.333" viewBox="0 0 40.316 34.333">
  <g id="Grupo_2844" data-name="Grupo 2844" transform="translate(-0.002)">
    <rect id="Ret창ngulo_1294" data-name="Ret창ngulo 1294" width="7.245" height="2.362" rx="1.181" transform="translate(17.718 9.45)" fill="#0bd692"/>
    <path id="Caminho_1368" data-name="Caminho 1368" d="M344.536,348.809a13,13,0,0,0-.943-1.562v-7.885a1.181,1.181,0,0,0-1.181-1.181h0a8.264,8.264,0,0,0-3.537.8,0,0,0,0,1-.007,0v-.791A1.181,1.181,0,0,0,337.686,337h0a8.285,8.285,0,0,0-7.471,4.722,0,0,0,0,1,0,0h-4.495a13.014,13.014,0,0,0-12.1,8.265,0,0,0,0,1,0,0h-.794a4.725,4.725,0,1,0-.092,9.45h.886a0,0,0,0,1,0,0,12.856,12.856,0,0,0,.877,1.818,13.07,13.07,0,0,0,4.058,4.292,0,0,0,0,1,0,0v4.1a1.677,1.677,0,0,0,1.677,1.677h3.97a1.678,1.678,0,0,0,1.56-1.062l1.009-2.558a0,0,0,0,1,0,0h5.133a0,0,0,0,1,0,0l1.01,2.558a1.678,1.678,0,0,0,1.56,1.061h3.969a1.677,1.677,0,0,0,1.677-1.677v-4.1a0,0,0,0,1,0,0,13.027,13.027,0,0,0,2.158-1.791l6.029-6.2a0,0,0,0,0,0,0v-8.741a0,0,0,0,0,0,0H344.54A0,0,0,0,1,344.536,348.809Zm-31.812,8.271a2.365,2.365,0,0,1-2.361-2.449,2.4,2.4,0,0,1,2.423-2.276h.147a0,0,0,0,1,0,.006,12.981,12.981,0,0,0,0,4.713,0,0,0,0,1,0,.006Zm26.146-15.357a5.892,5.892,0,0,1,2.354-1.06.005.005,0,0,1,.006,0v4.015a0,0,0,0,1-.008,0,13.02,13.02,0,0,0-2.352-1.544,0,0,0,0,1,0,0v-1.412A0,0,0,0,1,338.87,341.724Zm7.085,14.875a0,0,0,0,1,0,0l-5.361,5.516a10.671,10.671,0,0,1-2.246,1.767l-.579.341a0,0,0,0,0,0,0v3.063a1.677,1.677,0,0,1-1.678,1.677h0a1.678,1.678,0,0,1-1.56-1.062l-1.01-2.558a0,0,0,0,0,0,0h-8.348a0,0,0,0,0,0,0l-1.009,2.558a1.678,1.678,0,0,1-1.56,1.062h0a1.677,1.677,0,0,1-1.677-1.677V364.23a0,0,0,0,0,0,0l-.58-.341a10.632,10.632,0,0,1,5.386-19.8h6.118a0,0,0,0,0,0,0l.277-.784a5.918,5.918,0,0,1,4.383-3.817,0,0,0,0,1,.006,0v5.172a0,0,0,0,0,0,0l.7.308a10.617,10.617,0,0,1,5.494,5.494l.308.705a0,0,0,0,0,0,0h2.93a0,0,0,0,1,0,0Zm0,0" transform="translate(-307.999 -337)" fill="#0bd692"/>
    <rect id="Ret창ngulo_1295" data-name="Ret창ngulo 1295" width="2.362" height="2.362" rx="1.181" transform="translate(28.506 11.812)" fill="#0bd692"/>
  </g>
</svg>
