<svg xmlns="http://www.w3.org/2000/svg" width="38.834" height="38.835" data-name="Grupo 2874"><path fill="#0bd692" d="M20.04 28.93v-1.37H18.8v1.26h-1.25v1.88a1.88 1.88 0 001.88 1.88.63.63 0 01.62.62v.63h-.62a.63.63 0 01-.63-.63v-.62h-1.25v.62a1.88 1.88 0 001.25 1.76v1.37h1.25v-1.25h1.26V33.2a1.88 1.88 0 00-1.88-1.88.63.63 0 01-.63-.62v-.63h.63a.63.63 0 01.62.63v.62h1.26v-.62a1.88 1.88 0 00-1.26-1.77z" data-name="Caminho 1378"/><path fill="#0bd692" d="M21.37 2.63c-.43-.06-.87-.1-1.3-.11l-.05 1.25c.4.02.8.05 1.2.1z" data-name="Caminho 1379"/><path fill="#0bd692" d="M18.82 3.77l-.05-1.25c-.43.02-.87.05-1.3.1l.15 1.25c.4-.05.8-.08 1.2-.1z" data-name="Caminho 1380"/><path fill="#0bd692" d="M26.21 30.86a6.83 6.83 0 00-.85-2.39 11.9 11.9 0 10-12.83-20V5.52a14.27 14.27 0 013.89-1.45l-.26-1.23a15.5 15.5 0 00-3.63 1.26V1.25A1.25 1.25 0 0011.28 0H2.5a1.25 1.25 0 00-1.26 1.25v8.77a1.25 1.25 0 001.26 1.25H5V21.3a.63.63 0 11-1.26 0v-3.75a2.5 2.5 0 00-2.5-2.5A1.25 1.25 0 000 16.27v6.02a12.1 12.1 0 002.5 7.36v9.17h12.53v-1.57a6.89 6.89 0 0011.26-5.04 15.61 15.61 0 007.64-8.18l-1.16-.47a14.36 14.36 0 01-6.56 7.28zm-1.58-3.41a6.92 6.92 0 00-1.64-1.38 15.37 15.37 0 001.07-2.27h4.4a10.63 10.63 0 01-3.83 3.65zM16.2 23.8h6.51a14.06 14.06 0 01-.84 1.71 6.82 6.82 0 00-5.96.51c.13-.73.23-1.47.29-2.22zm-1.06-7.36a14.56 14.56 0 01.54-2.66h7.47a14.77 14.77 0 01.63 3.76h-7.61a1.88 1.88 0 00-1.03-1.1zm1.13 6.11c0-.28.02-.55.02-.83V18.8h7.5a14.82 14.82 0 01-.63 3.76zm12.86 0h-4.66a16.15 16.15 0 00.57-3.76h5a10.65 10.65 0 01-.91 3.76zm.9-5.01h-5a16.21 16.21 0 00-.56-3.76h4.65a10.55 10.55 0 01.91 3.76zm-1.6-5.01h-4.37a15.19 15.19 0 00-2.92-4.86 10.65 10.65 0 017.3 4.86zm-9.01-4.81a13.78 13.78 0 013.29 4.8h-6.58a13.88 13.88 0 013.29-4.8zm-8.1 3.55a1.25 1.25 0 001.2-1.2 10.63 10.63 0 015.19-2.4 15.12 15.12 0 00-2.93 4.86H10.4a10.54 10.54 0 01.92-1.26zm-1.6 2.51h4.66a15.96 15.96 0 00-.5 2.59 1.8 1.8 0 00-.17.05 1.88 1.88 0 00-1.8-1.39 1.86 1.86 0 00-.7.14 1.88 1.88 0 00-1.51-1.36zm-.95-.9v-1.6h.95a11.71 11.71 0 00-.95 1.6zM6.27 1.26h1.25V2.5H6.27zM2.5 10.03V1.26H5v2.5h3.76v-2.5h2.5v8.76h-2.5v-.63A1.88 1.88 0 105 9.4v.63zm11.27 27.56H3.76v-7.52h10.02zm.17-8.77H3.45a10.84 10.84 0 01-2.2-6.52V16.3a1.25 1.25 0 011.25 1.25v3.76a1.88 1.88 0 103.76 0V9.4a.63.63 0 011.25 0v12.53h1.25v-6.26a.63.63 0 111.26 0v6.26h1.25v-5.01a.63.63 0 011.25 0v5h1.26v-3.75a.63.63 0 111.25 0v3.55a23.75 23.75 0 01-1.09 7.1zm5.47 8.77a5.59 5.59 0 01-4.39-2.1v-5.94c.18-.55.34-1.1.48-1.66a5.63 5.63 0 113.9 9.7z" data-name="Caminho 1381"/><path fill="#0bd692" d="M33.2 22.37l1.2.36c.13-.43.25-.87.34-1.3l-1.23-.26c-.09.4-.19.8-.3 1.2z" data-name="Caminho 1382"/><path fill="#0bd692" d="M33.72 19.97l1.24.15c.05-.43.09-.87.1-1.3l-1.24-.05c-.02.4-.06.8-.1 1.2z" data-name="Caminho 1383"/><path fill="#0bd692" d="M33.82 2.5A2.5 2.5 0 1036.33 5a2.5 2.5 0 00-2.5-2.5zm0 3.76a1.25 1.25 0 111.26-1.25 1.25 1.25 0 01-1.26 1.25z" data-name="Caminho 1384"/><path fill="#0bd692" d="M38.83 5.01a5.01 5.01 0 00-10.02 0 4.88 4.88 0 00.05.67 15.56 15.56 0 00-6.18-2.83l-.26 1.22a14.36 14.36 0 017.06 3.79 16.2 16.2 0 003.5 5.46 14.37 14.37 0 01.83 4.24l1.25-.05a15.61 15.61 0 00-.7-3.96c1.58-1.08 4.47-5.78 4.47-8.54zm-5 7.42c-.95-.84-3.77-4.9-3.77-7.42a3.76 3.76 0 017.52 0c0 2.52-2.82 6.57-3.76 7.42z" data-name="Caminho 1385"/></svg>