<?xml version="1.0" encoding="utf-8"?>
<!-- Generator: Adobe Illustrator 25.0.0, SVG Export Plug-In . SVG Version: 6.00 Build 0)  -->
<svg version="1.1" id="Capa_1" xmlns="http://www.w3.org/2000/svg" xmlns:xlink="http://www.w3.org/1999/xlink" x="0px" y="0px"
	 viewBox="0 0 512 512" style="enable-background:new 0 0 512 512;" xml:space="preserve">
<style type="text/css">
	.st0{fill:#0BD692;}
</style>
<g>
	<path class="st0" d="M256,101c-85.5,0-155,69.5-155,155s69.5,155,155,155s155-69.5,155-155S341.5,101,256,101z M256,381
		c-68.9,0-125-56.1-125-125s56.1-125,125-125s125,56.1,125,125S324.9,381,256,381z"/>
	<path class="st0" d="M316,181H196c-8.3,0-15,6.7-15,15v120c0,8.3,6.7,15,15,15h120c8.3,0,15-6.7,15-15V196
		C331,187.7,324.3,181,316,181z M301,301h-90v-90h30v15c0,8.3,6.7,15,15,15s15-6.7,15-15v-15h30V301z"/>
	<path class="st0" d="M497,201h-33.1c-4.9-18.6-12.3-36.3-22.1-53.1l23.5-23.5c2.8-2.8,4.4-6.6,4.4-10.6c0-4-1.6-7.8-4.4-10.6
		l-56.6-56.6c-5.9-5.9-15.4-5.9-21.2,0L364,70.2c-16.7-9.8-34.5-17.1-53-22.1V15c0-8.3-6.7-15-15-15h-80c-8.3,0-15,6.7-15,15v33.1
		c-18.6,4.9-36.3,12.3-53,22.1l-23.5-23.5c-5.9-5.9-15.4-5.9-21.2,0l-56.6,56.6c-2.8,2.8-4.4,6.6-4.4,10.6c0,4,1.6,7.8,4.4,10.6
		l23.5,23.5C60.4,164.7,53,182.4,48.1,201H15c-8.3,0-15,6.7-15,15v80c0,8.3,6.7,15,15,15h33.1c4.9,18.6,12.3,36.3,22.1,53
		l-23.5,23.5c-2.8,2.8-4.4,6.6-4.4,10.6c0,4,1.6,7.8,4.4,10.6l56.6,56.6c2.8,2.8,6.6,4.4,10.6,4.4s7.8-1.6,10.6-4.4l23.5-23.5
		c16.7,9.8,34.5,17.1,53,22.1V497c0,8.3,6.7,15,15,15h80c8.3,0,15-6.7,15-15v-33.1c18.6-4.9,36.3-12.3,53-22.1l23.5,23.5
		c2.8,2.8,6.6,4.4,10.6,4.4c4,0,7.8-1.6,10.6-4.4l56.6-56.6c2.8-2.8,4.4-6.6,4.4-10.6c0-4-1.6-7.8-4.4-10.6L441.8,364
		c9.8-16.7,17.1-34.5,22.1-53H497c8.3,0,15-6.7,15-15v-80C512,207.7,505.3,201,497,201L497,201z M482,281h-30c-7.1,0-13.3,5-14.7,12
		c-4.7,23.1-13.8,45-27,64.9c-3.9,5.9-3.1,13.8,1.9,18.9l21.3,21.3l-35.4,35.4l-21.3-21.3c-5-5-12.9-5.8-18.9-1.9
		c-19.9,13.2-41.8,22.3-64.9,27c-7,1.4-12,7.6-12,14.7v30h-50v-30c0-7.1-5-13.3-12-14.7c-23.1-4.7-45-13.8-64.9-27
		c-5.9-3.9-13.8-3.1-18.9,1.9l-21.3,21.3l-35.4-35.4l21.3-21.3c5-5,5.8-12.9,1.9-18.9c-13.2-19.9-22.3-41.8-27-64.9
		c-1.4-7-7.6-12-14.7-12H30v-50h30c7.1,0,13.3-5,14.7-12c4.7-23.1,13.8-45,27-64.9c3.9-5.9,3.1-13.8-1.9-18.9l-21.3-21.3l35.4-35.4
		l21.3,21.3c5,5,12.9,5.8,18.9,1.9c19.9-13.2,41.8-22.3,64.9-27c7-1.4,12-7.6,12-14.7V30h50v30c0,7.1,5,13.3,12,14.7
		c23.1,4.7,45,13.8,64.9,27c5.9,3.9,13.8,3.1,18.9-1.9l21.3-21.3l35.4,35.4l-21.3,21.3c-5,5-5.8,12.9-1.9,18.9
		c13.2,19.9,22.3,41.8,27,64.9c1.4,7,7.6,12,14.7,12h30L482,281z"/>
</g>
</svg>
